<svg id="Layer_1" data-name="Layer 1" xmlns="http://www.w3.org/2000/svg" viewBox="0 0 95 106"><title>fingerPrint</title><path d="M46.2,3.65a47.53,47.53,0,0,0-27.95,8.93,1.25,1.25,0,0,0,1.47,2l0,0C34.11,3.89,58,2.57,73.07,15.66a1.25,1.25,0,1,0,1.64-1.89h0A43,43,0,0,0,46.2,3.65ZM44.15,15.1c-.53,0-1,0-1.58,0-13,.44-25.61,6-33.2,16.56a1.25,1.25,0,1,0,2,1.51l0,0C27.56,10.79,68.7,12,83.41,40.8a1.25,1.25,0,1,0,2.22-1.13c-8.47-16.59-25.2-24.6-41.48-24.57Zm-.91,12.48a44.82,44.82,0,0,0-10,1.35c-12.83,3.24-23.27,12-24.33,22.83a1.25,1.25,0,0,0,2.49.28v0c.91-9.4,10.34-17.59,22.46-20.65s26.65-1,37.46,9.75S83.78,65.85,84.1,73.46a36.35,36.35,0,0,1-1.9,13.26,12.74,12.74,0,0,1-3.14,5,6,6,0,0,1-4.77,1.59c-2.1-.16-4.56-.12-7.2-2.55s-5.5-7.6-7.32-18.49C59.06,68,58.53,63,56.51,58.91s-5.87-7-12.21-6.6a14.3,14.3,0,0,0-11,6,20.2,20.2,0,0,0-3.22,12.55c.42,9.45,5.83,20.24,16.37,26.82a1.25,1.25,0,0,0,1.33-2.12C37.94,89.44,33,79.34,32.57,70.76a17.83,17.83,0,0,1,2.76-11,11.63,11.63,0,0,1,9.14-5c5.57-.39,8.08,1.77,9.8,5.23s2.31,8.3,3,12.66c1.86,11.19,4.83,16.91,8.09,19.92s6.78,3,8.69,3.21a8.78,8.78,0,0,0,6.64-2.22,15,15,0,0,0,3.81-6A38.31,38.31,0,0,0,86.6,73.36c-.33-7.84-2-22.6-13.54-34A40.61,40.61,0,0,0,43.24,27.58ZM44.31,40a31.34,31.34,0,0,0-3.51.29c-8.2,1.16-16.5,7-21.71,15.24s-7.3,18.95-2.71,29.67a1.25,1.25,0,1,0,2.31-1v0c-4.25-9.92-2.34-19.69,2.52-27.35s12.7-13.08,20-14.1c8.5-1.2,18,.88,23.37,11.13S73.9,84.47,73.9,84.47a1.24,1.24,0,0,0,1.46,1,1.26,1.26,0,0,0,1-1.46v0S72.52,63.8,66.74,52.7A22.87,22.87,0,0,0,47.91,40.07a29,29,0,0,0-3.6-.11ZM46.2,61.42a1.22,1.22,0,0,0-1.1.82,24.6,24.6,0,0,0-1,10.08c.58,6,3.28,13.83,11.47,21.45A1.25,1.25,0,0,0,57.34,92l0,0C49.55,84.71,47.15,77.5,46.62,72.08a21.41,21.41,0,0,1,.82-9,1.26,1.26,0,0,0-.71-1.62,1.2,1.2,0,0,0-.53-.08Z"/></svg>